<?xml version="1.0" encoding="UTF-8" standalone="no"?>
<!-- Created with Inkscape (http://www.inkscape.org/) -->

<svg
   width="28.424023mm"
   height="28.424mm"
   viewBox="0 0 28.424023 28.424"
   version="1.1"
   id="svg787"
   xmlns="http://www.w3.org/2000/svg"
   xmlns:svg="http://www.w3.org/2000/svg">
  <defs
     id="defs784" />
  <g
     id="layer1"
     transform="translate(-2.421581,-2.0009873)">
    <g
       id="g5713-0-9-0"
       transform="translate(-95.872147,-52.062897)"
       style="display:inline;fill:#ffffff;stroke:#ffffff;stroke-opacity:1">
      <path
         id="path1818-7-9-0"
         style="fill:#ffffff;fill-opacity:1;stroke:#ffffff;stroke-width:0.257;stroke-dasharray:none;stroke-opacity:1"
         d="M 119.52241 54.814743 C 117.95706 54.811255 115.46088 55.887936 113.94652 57.220281 L 112.48821 58.503407 L 111.35236 57.615089 C 107.80207 54.836819 104.69429 54.296625 101.90901 55.974362 C 100.82328 56.628368 100.02353 57.495532 99.372732 58.724582 C 98.641043 60.106371 98.422402 61.017698 98.422402 62.681963 C 98.422402 64.410937 98.651429 65.301464 99.566519 67.129753 C 100.43206 68.859048 102.12582 70.899382 106.5201 75.504436 C 109.71531 78.852894 112.38744 81.592396 112.45824 81.592437 C 112.52902 81.592478 115.02431 79.057684 118.00312 75.959189 C 120.98194 72.860707 123.90091 69.605146 124.49006 68.725005 C 125.07921 67.844858 125.79287 66.450899 126.07549 65.62752 C 126.35813 64.804155 126.58916 63.47771 126.58916 62.679896 C 126.58916 61.882095 126.39713 60.57044 126.16231 59.764828 C 125.92747 58.959218 125.17507 57.696311 124.49006 56.958281 C 123.26224 55.635416 121.36965 54.818843 119.52241 54.814743 z M 109.90491 60.976641 L 114.86584 60.976641 L 114.83277 65.176901 L 119.03303 65.243047 L 119.03303 70.237057 L 114.83277 70.237057 L 114.83277 74.470391 L 109.90491 74.437318 L 109.90491 70.27013 L 105.80386 70.27013 L 105.80386 65.209974 L 109.87183 65.209974 L 109.90491 60.976641 z " />
    </g>
  </g>
</svg>
