<?xml version="1.0" standalone="no"?>
<!DOCTYPE svg PUBLIC "-//W3C//DTD SVG 20010904//EN"
 "http://www.w3.org/TR/2001/REC-SVG-20010904/DTD/svg10.dtd">
<svg version="1.0" xmlns="http://www.w3.org/2000/svg"
 width="512.000000pt" height="512.000000pt" viewBox="0 0 512.000000 512.000000"
 preserveAspectRatio="xMidYMid meet">

<g transform="translate(0.000000,512.000000) scale(0.100000,-0.100000)"
fill="#000000" stroke="none">
<path d="M1678 4949 c-17 -9 -18 -127 -18 -2254 l0 -2245 100 0 100 0 0 583
c0 581 0 584 21 603 20 18 46 19 679 19 633 0 659 -1 679 -19 21 -19 21 -22
21 -603 l0 -583 100 0 100 0 0 2245 c0 2209 0 2244 -19 2255 -27 14 -1739 13
-1763 -1z m1017 -184 c145 -31 298 -126 384 -239 259 -344 143 -817 -244
-1002 -75 -36 -195 -64 -276 -64 -188 0 -404 106 -515 253 -207 274 -185 635
53 873 155 156 384 224 598 179z m483 -1667 c17 -17 17 -359 0 -376 -17 -17
-1219 -17 -1236 0 -8 8 -12 64 -12 188 0 124 4 180 12 188 17 17 1219 17 1236
0z m0 -760 c17 -17 17 -359 0 -376 -17 -17 -1219 -17 -1236 0 -8 8 -12 64 -12
188 0 124 4 180 12 188 17 17 1219 17 1236 0z"/>
<path d="M2430 4480 c-17 -17 -20 -33 -20 -115 l0 -95 -95 0 c-131 0 -135 -4
-135 -148 0 -146 0 -146 129 -150 l101 -4 0 -94 c0 -130 4 -134 150 -134 146
0 150 4 150 134 l0 94 101 4 c129 4 129 4 129 150 0 144 -4 148 -135 148 l-95
0 0 95 c0 131 -4 135 -150 135 -97 0 -112 -2 -130 -20z"/>
<path d="M382 3678 c-7 -7 -12 -35 -12 -63 0 -28 5 -56 12 -63 9 -9 150 -12
575 -12 l563 0 0 75 0 75 -563 0 c-425 0 -566 -3 -575 -12z"/>
<path d="M3600 3615 l0 -75 563 0 c425 0 566 3 575 12 7 7 12 35 12 63 0 28
-5 56 -12 63 -9 9 -150 12 -575 12 l-563 0 0 -75z"/>
<path d="M470 1925 l0 -1475 525 0 525 0 0 1475 0 1475 -525 0 -525 0 0 -1475z
m704 1169 c13 -13 16 -44 16 -188 0 -120 -4 -176 -12 -184 -8 -8 -64 -12 -184
-12 -219 0 -204 -15 -204 202 0 210 -13 198 204 198 136 0 167 -3 180 -16z
m-6 -760 c21 -15 22 -21 22 -188 0 -120 -4 -176 -12 -184 -8 -8 -64 -12 -184
-12 -219 0 -204 -15 -204 202 0 145 2 160 20 178 18 18 33 20 178 20 126 0
162 -3 180 -16z m0 -760 c21 -15 22 -21 22 -188 0 -120 -4 -176 -12 -184 -15
-15 -345 -17 -368 -2 -12 7 -16 40 -18 166 -4 177 0 201 31 214 12 5 90 9 172
9 121 1 155 -2 173 -15z"/>
<path d="M3600 1925 l0 -1475 525 0 525 0 0 1475 0 1475 -525 0 -525 0 0
-1475z m710 1165 c18 -18 20 -33 20 -178 0 -217 15 -202 -204 -202 -120 0
-176 4 -184 12 -8 8 -12 64 -12 184 0 144 3 175 16 188 13 13 44 16 180 16
151 0 166 -2 184 -20z m0 -760 c18 -18 20 -33 20 -178 0 -217 15 -202 -204
-202 -120 0 -176 4 -184 12 -8 8 -12 64 -12 184 0 219 -15 204 202 204 145 0
160 -2 178 -20z m6 -764 c11 -15 14 -57 14 -176 0 -214 14 -200 -204 -200
-120 0 -176 4 -184 12 -8 8 -12 64 -12 184 0 221 -15 206 208 202 149 -3 165
-5 178 -22z"/>
<path d="M2000 985 l0 -535 245 0 245 0 0 535 0 535 -245 0 -245 0 0 -535z"/>
<path d="M2630 985 l0 -535 245 0 245 0 0 535 0 535 -245 0 -245 0 0 -535z"/>
<path d="M170 291 c-15 -30 -12 -97 6 -115 14 -14 244 -16 2384 -16 2140 0
2370 2 2384 16 18 18 21 85 6 115 -11 19 -48 19 -2390 19 -2342 0 -2379 0
-2390 -19z"/>
</g>
</svg>
