<?xml version="1.0" standalone="no"?>
<!DOCTYPE svg PUBLIC "-//W3C//DTD SVG 20010904//EN"
 "http://www.w3.org/TR/2001/REC-SVG-20010904/DTD/svg10.dtd">
<svg version="1.0" xmlns="http://www.w3.org/2000/svg"
 width="512.000000pt" height="512.000000pt" viewBox="0 0 512.000000 512.000000"
 preserveAspectRatio="xMidYMid meet">

<g transform="translate(0.000000,512.000000) scale(0.100000,-0.100000)"
fill="#000000" stroke="none">
<path d="M1766 5110 c-251 -40 -509 -184 -660 -369 -166 -202 -247 -423 -249
-676 -3 -246 67 -460 212 -652 144 -191 342 -325 579 -391 88 -24 113 -27 272
-27 151 0 186 3 260 23 310 84 558 285 694 565 204 415 122 903 -206 1228
-134 133 -302 228 -486 275 -109 28 -313 40 -416 24z"/>
<path d="M885 2544 c-389 -70 -703 -341 -831 -716 -49 -144 -55 -229 -52 -675
3 -398 4 -412 24 -439 11 -15 33 -37 48 -48 27 -21 38 -21 742 -24 680 -2 715
-2 710 15 -24 84 -29 121 -29 208 1 242 136 453 358 560 50 24 114 48 143 54
32 7 191 11 405 11 378 0 412 -4 523 -54 l51 -23 97 196 c54 108 118 224 142
258 77 108 215 202 348 237 32 8 60 16 62 19 9 9 -117 143 -191 202 -101 82
-269 167 -400 202 l-100 28 -985 2 c-822 1 -998 -1 -1065 -13z"/>
<path d="M3682 1700 c-18 -4 -50 -19 -72 -34 -37 -24 -59 -65 -290 -527 l-251
-501 -125 186 c-106 158 -132 190 -172 213 l-47 28 -325 0 -325 0 -47 -28
c-121 -71 -142 -234 -44 -332 60 -59 90 -65 347 -65 l224 -1 190 -286 c104
-157 203 -296 220 -308 72 -54 163 -57 243 -9 47 29 48 31 292 516 135 269
248 488 251 488 3 0 107 -168 229 -372 123 -205 237 -385 253 -401 56 -52 105
-59 434 -55 l298 3 47 28 c121 71 142 234 44 332 -60 59 -91 65 -342 65 l-219
0 -293 489 c-161 268 -308 503 -326 520 -18 18 -55 39 -81 47 -53 15 -64 16
-113 4z"/>
</g>
</svg>
